<svg width="239" height="239" viewBox="0 0 239 239" fill="none" xmlns="http://www.w3.org/2000/svg">
<rect width="239" height="239" rx="8" fill="black"/>
<path d="M121.76 34.0666C124.427 35 127.493 36.4666 128.693 37.5333C130.427 38.8666 133.893 39.1333 143.76 38.4666C152.693 37.8 157.093 38.0666 158.427 39.1333C159.627 40.0666 162.693 40.3333 166.827 39.8C172.693 39 173.627 39.2666 175.493 41.9333C176.693 43.6666 178.16 44.8666 178.56 44.6C179.093 44.3333 179.76 44.8666 180.027 45.6666C180.427 46.7333 179.627 47 177.76 46.3333C174.96 45.5333 174.027 46.7333 176.027 49C176.56 49.8 176.693 53 176.16 56.3333C175.76 59.6666 175.227 61.2666 175.227 59.9333C174.96 58.0666 173.76 58.8666 169.627 63.1333C164.293 68.7333 164.293 68.8666 166.827 71.5333C174.293 79.9333 187.093 108.733 184.293 111.533C182.427 113.4 182.56 119.4 184.56 123.933C186.027 127.267 191.627 135.267 199.093 144.467C202.693 149 201.627 152.6 195.627 155.4C191.36 157.4 190.96 158.067 190.96 163.533C190.96 166.867 190.427 169.933 189.627 170.333C188.96 170.733 188.693 172.867 189.227 175C189.893 178.333 189.493 179.133 186.293 180.333C183.36 181.4 182.827 182.2 183.627 184.733C185.76 191.533 185.893 195.933 183.76 198.067C181.36 200.333 172.427 201.8 157.893 202.067C147.493 202.333 145.76 203.4 145.627 209.667C145.627 211.533 144.827 214.333 143.893 216.067L142.16 219.133L136.16 214.6C117.093 200.2 76.96 181.667 64.6933 181.667C60.96 181.667 60.2933 181.133 60.2933 178.467C60.2933 176.733 59.0933 173.8 57.6267 171.933C56.16 170.067 54.96 167.4 54.96 165.933C54.96 164.6 52.96 159.533 50.56 154.867C34.8267 123.933 34.16 108.067 46.96 63C47.6267 60.4666 49.8933 56.4666 51.8933 54.3333C56.4267 49.4 70.6933 39 73.0933 39C74.0267 39 77.0933 37.6666 79.76 36.0666C84.16 33.5333 87.0933 33 100.827 32.7333C110.693 32.6 118.827 33.1333 121.76 34.0666Z" fill="white"/>
</svg>
